# xmcd
#
# Track frame offsets:
# 150
# 6708
# 26234
# 47633
# 64680
# 78038
# 91639
# 114276
# 135498
# 147804
# 164401
# 182620
# 202841
# 208321
#
# Disc length: 2954 seconds
#
#
# Revision: 1
# Processed by: cddbd v1.5.2PL0 Copyright (c) Steve Scherf et al.
# Submitted via: FreeRIP 2.40 
#
DISCID=b60b880e
DTITLE=Los delinqüentes - El verde revelde vuelve
DYEAR=2005
DGENRE=
TTITLE0=El show de los rateros garrapateros
TTITLE1=La primavera trompetera (Álbum version)
TTITLE2=Después (con BEBE y Gualberto al sitar)
TTITLE3=Ya nadie te quiere (con Diego Carrasco)
TTITLE4=Chiclana (con Kiko Veneno)
TTITLE5=Pirata del estrecho
TTITLE6=Johny Chaparrón (El hombre lluvia)
TTITLE7=Estoy sentado en mi cama (con Rafael Amador)
TTITLE8=No llevamos ná
TTITLE9=El abuelo Frederick
TTITLE10=No me quites mis tomates
TTITLE11=Trabubulandia
TTITLE12=El increíble mundo donde habitan los calcetines
TTITLE13=El polígano Chimenea
EXTD=www.deskastaos.com (Gracias SantaSangre)
EXTT0=
EXTT1=
EXTT2=
EXTT3=
EXTT4=
EXTT5=
EXTT6=
EXTT7=
EXTT8=
EXTT9=
EXTT10=
EXTT11=
EXTT12=
EXTT13=
PLAYORDER=
